<?xml version="1.0" standalone="no"?>
<!DOCTYPE svg PUBLIC "-//W3C//DTD SVG 20010904//EN"
 "http://www.w3.org/TR/2001/REC-SVG-20010904/DTD/svg10.dtd">
<svg version="1.0" xmlns="http://www.w3.org/2000/svg"
 width="300.000000pt" height="300.000000pt" viewBox="0 0 300.000000 300.000000"
 preserveAspectRatio="xMidYMid meet">
<metadata>
Created by potrace 1.10, written by Peter Selinger 2001-2011
</metadata>
<g transform="translate(0.000000,300.000000) scale(0.100000,-0.100000)"
fill="#000000" stroke="none">
<path d="M1569 2868 c0 -29 -4 -95 -7 -147 -6 -72 -4 -95 6 -98 20 -8 21 -3
27 83 3 43 8 109 11 147 6 63 5 67 -15 67 -19 0 -21 -6 -22 -52z"/>
<path d="M1695 2878 c-11 -65 -35 -238 -35 -253 0 -24 29 -17 34 8 9 41 29
202 30 236 1 45 -21 52 -29 9z"/>
<path d="M1105 2846 c-49 -16 -91 -30 -92 -31 -5 -2 81 -265 87 -265 24 1 28
18 13 63 -9 28 -12 51 -7 56 5 4 35 15 67 25 35 10 57 23 57 32 0 18 -5 18
-76 -6 -32 -11 -62 -20 -65 -20 -7 0 -32 91 -27 95 12 8 92 35 106 35 28 0 45
16 36 32 -8 12 -24 9 -99 -16z"/>
<path d="M1449 2833 c0 -5 0 -40 1 -79 1 -80 -12 -104 -59 -104 -42 0 -58 26
-65 104 -3 38 -8 71 -10 73 -11 11 -35 -12 -32 -31 3 -11 8 -46 11 -76 8 -69
34 -100 85 -100 20 0 45 7 56 15 22 17 38 20 29 5 -3 -5 3 -10 15 -10 19 0 21
4 16 38 -3 20 -8 67 -11 105 -5 48 -11 67 -21 67 -8 0 -14 -3 -15 -7z"/>
<path d="M1953 2740 c-54 -22 -46 -74 17 -116 46 -30 50 -57 9 -62 -17 -2 -37
6 -57 23 -24 20 -36 24 -48 17 -15 -8 -11 -14 26 -41 46 -34 108 -42 129 -18
25 32 17 59 -29 95 -25 19 -45 42 -45 51 0 24 44 26 76 2 32 -23 68 -19 47 6
-27 33 -93 55 -125 43z"/>
<path d="M1763 2715 c-7 -19 12 -35 42 -35 11 0 30 -3 43 -6 16 -5 22 -2 22 9
0 11 -15 20 -42 28 -24 6 -46 13 -51 16 -4 2 -10 -3 -14 -12z"/>
<path d="M2172 2689 c-9 -14 -19 -18 -32 -14 -14 4 -20 2 -20 -9 0 -9 5 -16
10 -16 17 0 12 -16 -26 -80 -32 -53 -35 -64 -26 -86 15 -32 58 -52 75 -35 9 9
7 13 -10 17 -36 10 -37 39 -3 99 17 30 35 55 39 55 3 0 16 -7 28 -15 16 -11
24 -12 29 -4 7 11 -15 34 -40 42 -7 3 -6 9 3 21 12 15 12 19 0 31 -13 13 -16
12 -27 -6z"/>
<path d="M2276 2554 c-3 -9 6 -19 27 -28 18 -7 41 -23 51 -35 16 -18 17 -25 8
-47 l-12 -25 -44 35 c-25 21 -54 36 -69 36 -34 0 -60 -38 -51 -74 7 -28 52
-66 77 -66 8 0 17 -9 20 -20 3 -11 9 -20 14 -20 17 1 103 128 103 153 0 48
-110 129 -124 91z m24 -123 c29 -25 32 -31 21 -45 -20 -23 -58 -20 -87 9 -20
20 -23 28 -14 45 15 27 39 25 80 -9z"/>
<path d="M672 2548 c-5 -7 -12 -22 -14 -33 -2 -12 -12 -20 -23 -21 -11 -1 -24
-2 -28 -3 -5 0 11 -24 35 -52 23 -28 54 -66 68 -83 20 -26 29 -31 41 -23 14 9
11 17 -27 64 -47 57 -55 94 -29 123 13 15 13 19 2 29 -11 8 -17 8 -25 -1z"/>
<path d="M910 2495 c0 -22 4 -26 23 -23 14 2 22 10 22 23 0 13 -8 21 -22 23
-19 3 -23 -1 -23 -23z"/>
<path d="M524 2390 c-74 -30 -84 -141 -17 -185 29 -19 81 -22 111 -6 26 14 62
68 62 94 0 26 -27 20 -34 -8 -10 -40 -42 -65 -81 -65 -19 0 -35 3 -35 6 0 3
19 29 43 57 77 93 74 85 34 102 -41 17 -53 18 -83 5z m60 -26 c17 -7 10 -20
-48 -89 -22 -25 -27 -28 -36 -15 -17 26 -11 60 15 85 25 25 41 30 69 19z"/>
<path d="M2418 2364 c-30 -16 -58 -61 -58 -94 0 -50 52 -110 96 -110 17 0 21
4 17 21 -3 11 -11 18 -19 15 -16 -6 -64 49 -64 73 0 10 9 30 21 45 16 20 29
26 58 26 44 0 71 -24 74 -66 4 -44 32 -38 30 6 -1 26 -11 43 -37 67 -39 36
-74 41 -118 17z"/>
<path d="M2591 2184 c-63 -35 -118 -64 -123 -64 -10 0 -10 -11 1 -29 7 -11 13
-10 33 3 20 13 31 14 52 7 32 -13 32 -19 2 -79 -21 -41 -22 -51 -11 -72 l13
-23 7 22 c4 13 18 47 31 77 l24 54 51 -20 c28 -12 53 -19 56 -17 14 14 -18 37
-82 58 -41 13 -75 26 -75 29 0 3 35 23 78 46 69 36 94 63 67 70 -5 2 -61 -26
-124 -62z"/>
<path d="M354 2165 c-31 -33 -35 -43 -31 -73 5 -28 3 -33 -10 -28 -9 4 -20 1
-24 -6 -5 -8 15 -24 64 -51 40 -21 96 -52 126 -68 40 -22 57 -27 65 -19 13 13
-12 36 -56 52 -35 13 -35 19 2 40 57 33 65 92 17 144 -24 26 -43 37 -75 41
-39 5 -45 3 -78 -32z m120 -21 c43 -42 40 -88 -8 -120 -70 -45 -152 53 -96
114 25 26 81 30 104 6z"/>
<path d="M271 1936 c-53 -29 -68 -115 -28 -161 41 -47 121 -50 161 -6 24 27
32 96 15 127 -26 49 -98 68 -148 40z m88 -31 c70 -35 47 -135 -31 -135 -71 0
-106 87 -52 129 32 25 46 26 83 6z"/>
<path d="M2785 1859 c-154 -27 -197 -38 -190 -49 2 -4 7 -25 10 -46 19 -128
60 -174 153 -174 55 0 92 22 117 70 18 35 19 63 3 146 -13 70 -8 68 -93 53z
m69 -75 c11 -80 8 -94 -28 -130 -76 -76 -177 -21 -188 101 l-3 40 85 16 c131
25 126 26 134 -27z"/>
<path d="M97 1703 c-13 -20 14 -30 113 -42 58 -7 122 -17 143 -21 34 -7 37 -6
37 14 0 18 -7 21 -43 24 -23 1 -64 6 -92 12 -91 17 -153 22 -158 13z"/>
<path d="M234 1590 c-32 -13 -64 -59 -64 -92 0 -104 126 -146 192 -64 34 42
11 173 -24 138 -9 -9 -9 -15 0 -24 22 -22 14 -77 -15 -106 l-28 -27 -3 93 c-3
99 -6 103 -58 82z m28 -95 c2 -51 0 -65 -11 -65 -45 0 -68 75 -34 112 30 33
41 22 45 -47z"/>
<path d="M2683 1530 c-40 -24 -61 -83 -47 -132 6 -18 16 -33 24 -33 15 0 15 8
4 65 -6 28 28 80 52 80 12 0 13 -15 9 -85 l-6 -85 31 0 c22 0 41 9 61 29 54
54 34 144 -38 172 -36 13 -54 11 -90 -11z m117 -47 c15 -19 19 -35 15 -53 -6
-25 -39 -60 -56 -60 -5 0 -9 32 -9 70 0 79 13 90 50 43z"/>
<path d="M175 1349 c-14 -21 38 -43 133 -55 28 -4 52 -10 52 -13 0 -4 -34 -29
-75 -56 -49 -32 -75 -56 -75 -68 0 -23 -3 -24 103 48 117 80 116 92 -14 121
-53 12 -101 24 -107 28 -6 3 -14 1 -17 -5z"/>
<path d="M2706 1277 c-76 -17 -100 -26 -102 -39 -1 -12 27 -39 86 -83 48 -36
90 -65 94 -65 3 0 6 6 6 14 0 12 -60 63 -129 109 -28 19 -23 21 54 33 28 4 53
8 58 10 4 1 18 2 32 3 18 1 25 7 25 21 0 24 2 24 -124 -3z"/>
<path d="M391 1147 c-9 -12 -6 -18 14 -31 20 -13 25 -25 25 -60 0 -27 -6 -48
-15 -56 -19 -16 -15 -21 -49 68 -31 81 -50 91 -85 45 -31 -38 -35 -67 -16
-108 28 -58 88 -80 144 -51 73 38 80 129 13 189 -16 15 -21 15 -31 4z m-41
-107 c13 -34 21 -63 18 -65 -3 -3 -18 0 -35 5 -40 14 -58 53 -42 92 18 43 34
34 59 -32z"/>
<path d="M2562 1078 c-43 -47 -57 -128 -22 -128 16 0 19 5 14 24 -7 28 18 81
41 90 18 7 55 8 55 2 0 -2 -16 -38 -35 -80 l-35 -77 27 -10 c35 -13 69 -4 98
26 70 69 24 175 -76 175 -34 0 -51 -6 -67 -22z m138 -47 c23 -45 -1 -94 -52
-107 -35 -8 -35 0 -3 71 27 59 38 66 55 36z"/>
<path d="M379 893 c-41 -35 -62 -85 -53 -127 5 -28 39 -93 54 -106 3 -3 13
-18 23 -33 l18 -28 47 34 c26 19 76 54 112 77 36 24 66 45 68 46 8 5 -86 124
-114 143 -45 31 -113 29 -155 -6z m149 -26 c17 -13 75 -97 70 -101 -43 -32
-167 -116 -171 -116 -16 0 -67 101 -67 133 0 41 38 93 73 100 29 6 79 -3 95
-16z"/>
<path d="M2466 913 c-14 -15 -3 -33 32 -54 57 -34 144 -89 175 -111 28 -19 47
-17 47 5 0 7 -33 31 -73 55 -39 23 -95 58 -124 77 -28 18 -54 31 -57 28z"/>
<path d="M2404 800 c-59 -24 -83 -113 -44 -162 56 -72 161 -52 190 37 27 82
-62 159 -146 125z m98 -53 c10 -12 18 -36 18 -53 0 -66 -82 -92 -127 -40 -30
35 -29 71 3 103 20 20 31 24 57 19 18 -4 40 -16 49 -29z"/>
<path d="M2211 716 c-11 -13 -7 -21 18 -48 37 -40 38 -48 7 -48 -58 0 -106
-74 -87 -133 18 -53 45 -72 103 -72 42 0 53 4 74 28 13 15 24 38 24 50 1 20 2
20 13 5 9 -11 18 -14 27 -8 10 6 11 12 3 22 -5 7 -43 56 -83 108 -41 52 -76
99 -80 103 -4 4 -12 1 -19 -7z m108 -175 c26 -62 -39 -123 -97 -90 -55 31 -55
110 1 134 40 17 78 0 96 -44z"/>
<path d="M725 620 c-29 -11 -61 -51 -69 -82 -14 -58 46 -132 97 -121 24 6 21
-6 -13 -51 -23 -30 -27 -42 -18 -53 6 -7 12 -12 13 -11 2 2 42 54 89 117 56
75 83 118 77 124 -7 7 -16 6 -26 -3 -13 -10 -15 -9 -15 7 0 24 -34 61 -67 74
-29 11 -41 11 -68 -1z m92 -52 c13 -12 23 -32 23 -44 0 -31 -47 -84 -75 -84
-37 0 -75 37 -75 73 0 67 78 101 127 55z"/>
<path d="M953 493 c-28 -11 -13 -33 22 -33 43 0 85 -37 85 -75 0 -14 -1 -25
-3 -25 -2 0 -34 16 -73 35 -78 39 -89 42 -98 19 -24 -63 26 -134 95 -134 51 0
75 13 94 50 32 61 12 120 -50 150 -42 21 -51 22 -72 13z m84 -158 c-7 -21 -49
-33 -79 -23 -30 11 -53 50 -44 74 6 16 128 -35 123 -51z"/>
<path d="M1988 479 c-32 -17 -58 -45 -58 -63 0 -14 26 -4 51 20 31 30 82 35
107 11 8 -9 14 -18 11 -20 -2 -1 -37 -18 -76 -37 -40 -18 -73 -38 -73 -43 0
-5 14 -22 32 -39 28 -26 38 -29 73 -25 104 14 129 153 35 202 -38 19 -57 18
-102 -6z m132 -93 c0 -56 -78 -92 -117 -53 -14 14 -10 18 43 45 73 37 74 37
74 8z"/>
<path d="M1840 418 c0 -7 7 -31 15 -53 22 -63 19 -102 -10 -121 -27 -18 -34
-44 -11 -44 8 0 24 11 35 25 18 24 20 25 30 8 6 -12 13 -15 20 -8 6 7 0 43
-17 107 -21 76 -31 98 -44 98 -10 0 -18 -6 -18 -12z"/>
<path d="M1198 378 c-8 -13 -34 -61 -57 -108 -24 -47 -48 -89 -52 -95 -14 -14
-11 -35 5 -35 9 0 40 47 73 108 l58 107 12 -65 c6 -36 15 -87 18 -115 4 -27 9
-53 12 -57 14 -24 38 3 89 99 l58 107 12 -65 c7 -36 15 -91 19 -123 6 -46 11
-56 26 -56 11 0 19 2 19 4 0 12 -42 253 -46 269 -4 11 -13 17 -26 15 -14 -2
-35 -32 -70 -101 -28 -54 -52 -96 -54 -94 -3 3 -44 212 -44 224 0 2 -8 3 -19
3 -10 0 -25 -10 -33 -22z"/>
<path d="M1604 365 c-4 -9 -2 -21 4 -27 15 -15 44 -1 40 19 -4 23 -36 29 -44
8z"/>
</g>
</svg>
